PathFileType	4	(X/Y/Z)	E:\3-PhD\Data\MocapData\ElaboratedData\015\pre\dynamicElaborations\RunL1\RunL1.trc
DataRate	CameraRate	NumFrames	NumMarkers	Units	OrigDataRate	OrigDataStartFrame	OrigNumFrames
200	200	4	61	mm	200	2.560000e+02	124
Frame#	Time	FHD			LBHD			RBHD			C7			T10			CLAV			LSHO			LUUPA			LMUPA			LDUPA			LLEP			LMEP			LRAD			LUL			LRFIN			RSHO			RUPA1			RMUPA			RDUPA			RLEP			RMEP			RRAD			RUL			RUFIN			LASI			RASI			USACR			LSACR			RSACR			LTHI1			LTHI2			LTHI3			LTHI4			LLFC			LMFC			LTIB1			LTIB2			LTIB3			LTIB4			LLMAL			LMMAL			LHEE			LMT1			LMT5			LMT2			RTHI			RTHI2			RTHI3			RTHI4			RLFC			RMFC			RTIB1			RTIB2			RTIB3			RTIB4			RLMAL			RMMAL			RHEE			RMT1			RMT2			RMT5		
		X1	Y1	Z1	X2	Y2	Z2	X3	Y3	Z3	X4	Y4	Z4	X5	Y5	Z5	X6	Y6	Z6	X7	Y7	Z7	X8	Y8	Z8	X9	Y9	Z9	X10	Y10	Z10	X11	Y11	Z11	X12	Y12	Z12	X13	Y13	Z13	X14	Y14	Z14	X15	Y15	Z15	X16	Y16	Z16	X17	Y17	Z17	X18	Y18	Z18	X19	Y19	Z19	X20	Y20	Z20	X21	Y21	Z21	X22	Y22	Z22	X23	Y23	Z23	X24	Y24	Z24	X25	Y25	Z25	X26	Y26	Z26	X27	Y27	Z27	X28	Y28	Z28	X29	Y29	Z29	X30	Y30	Z30	X31	Y31	Z31	X32	Y32	Z32	X33	Y33	Z33	X34	Y34	Z34	X35	Y35	Z35	X36	Y36	Z36	X37	Y37	Z37	X38	Y38	Z38	X39	Y39	Z39	X40	Y40	Z40	X41	Y41	Z41	X42	Y42	Z42	X43	Y43	Z43	X44	Y44	Z44	X45	Y45	Z45	X46	Y46	Z46	X47	Y47	Z47	X48	Y48	Z48	X49	Y49	Z49	X50	Y50	Z50	X51	Y51	Z51	X52	Y52	Z52	X53	Y53	Z53	X54	Y54	Z54	X55	Y55	Z55	X56	Y56	Z56	X57	Y57	Z57	X58	Y58	Z58	X59	Y59	Z59	X60	Y60	Z60	X61	Y61	Z61	
333	1.660000	-393.300145	1529.250303	262.101258	-519.289635	1588.448514	230.400167	-549.818522	1584.937514	354.420010	-683.595935	1478.775671	249.267838	-787.738657	1163.202991	210.343358	-560.606370	1368.803521	273.025706	-584.120708	1469.674891	95.121630	-592.564166	1306.579160	-19.763163	-568.050471	1266.827607	-6.240921	-599.021836	1246.901889	-54.104978	-631.855904	1171.251992	-79.635949	-694.385469	1151.070784	3.667077	-454.907323	1099.443345	102.137496	-484.666132	1158.258806	133.949171	-407.585790	1177.358726	164.811430	-671.716808	1441.822187	432.879015	-788.855261	1341.341637	534.845582	-775.381260	1296.989126	546.878080	-832.371227	1297.029750	567.967237	-881.960987	1205.491036	600.445947	-914.915896	1194.060475	524.205160	-662.137956	1058.597039	532.176790	-693.090958	1004.048349	574.181773	-587.441780	1013.626035	538.708591	-640.625798	956.120805	114.374096	-659.246155	980.724387	357.656162	-818.294967	1065.672364	224.591697	-820.303379	1032.059015	197.923535	-827.810301	1035.668917	254.721611	-823.267103	693.684499	48.640794	-820.662506	609.872598	52.662721	-777.961653	593.274807	63.327708	-866.318623	570.445927	66.575482	-916.809966	501.050911	78.361172	-925.142405	500.305526	201.626391	-1051.604978	390.992433	97.795922	-1105.103212	433.593743	41.698455	-1099.746581	399.619296	65.962578	-1180.836036	377.923431	88.966694	-1308.189493	403.516179	57.708817	-1306.843173	388.326821	142.627682	-1363.194182	470.429732	103.994076	-1361.468172	260.693318	133.474034	-1388.126037	289.362128	34.850005	-1357.702669	256.205688	84.537924	-626.059929	814.174080	430.464470	-570.624195	785.822841	413.453995	-551.057027	799.494325	389.659428	-553.897293	702.110511	421.166142	-508.484652	513.362661	372.796178	-494.100013	523.164862	249.811887	-406.414521	323.759067	327.490901	-456.913353	227.845976	352.719862	-411.927330	238.333465	341.916286	-388.012664	197.752622	309.885392	-412.155100	107.633954	322.389149	-406.051477	140.139682	246.077079	-471.231414	47.353606	258.151250	-259.682705	123.660469	267.830807	-266.771187	111.083282	307.843550	-295.694482	57.935510	348.686694	
334	1.665000	-370.135032	1527.875399	262.282804	-496.534482	1586.427203	230.956359	-526.635600	1582.710446	355.144392	-660.386429	1476.306500	250.997898	-763.813887	1160.352729	212.017399	-536.989242	1366.167384	273.370929	-561.835188	1467.198255	95.516782	-572.144568	1303.878261	-20.392863	-547.985698	1263.949646	-6.583033	-579.622934	1243.880546	-54.073918	-613.261802	1168.747707	-79.267113	-675.139880	1149.448870	4.158794	-435.986390	1088.595009	98.991624	-463.621220	1147.452273	132.445374	-386.053395	1163.182926	164.034026	-647.488890	1437.694481	434.447614	-763.461198	1333.299796	536.512442	-748.804608	1289.130292	547.832659	-805.679503	1287.309759	568.882170	-853.417779	1195.488126	601.215159	-886.443025	1183.997318	524.743694	-631.834821	1051.968340	530.472427	-661.826450	997.008393	572.633494	-556.523619	1008.657148	537.378228	-615.751619	954.877576	114.749526	-634.750908	977.390283	358.585582	-794.067756	1062.453897	226.278766	-795.979159	1028.911514	199.538303	-803.455098	1032.377344	256.360180	-796.524748	691.257159	47.103638	-792.430676	607.572357	49.443257	-749.327819	591.164663	58.930342	-836.952451	567.005663	63.921355	-885.634937	497.785728	75.529087	-891.232818	492.984387	198.212079	-1021.483795	390.438885	94.096768	-1075.644702	437.298891	41.841117	-1070.307571	401.998293	64.092917	-1151.316526	381.032851	88.506595	-1277.881875	410.388100	61.199451	-1275.288581	393.206996	145.849358	-1331.045673	477.304008	110.124326	-1332.176681	266.591293	134.246758	-1359.707501	298.289130	36.755195	-1329.093619	263.316052	85.220869	-602.783036	809.952721	430.998856	-547.455204	781.045187	414.792045	-527.206368	794.789357	391.539176	-531.995719	696.994315	421.433826	-488.252399	507.317689	372.817268	-473.782670	518.293719	249.901223	-388.244146	316.939198	325.800699	-439.883530	221.445956	351.116014	-394.949681	231.584093	339.975243	-371.998782	190.821698	307.632650	-397.866367	102.243923	320.306729	-391.201201	133.654978	243.642976	-459.973818	46.136876	256.575796	-246.066544	113.159842	265.476992	-253.147113	101.191421	305.536570	-283.981537	50.287452	347.057745	
335	1.670000	-347.056085	1526.511915	262.268769	-473.893692	1584.346874	231.368570	-503.491821	1580.507420	355.728576	-637.462777	1473.656664	252.762084	-739.936655	1157.198903	213.771893	-513.445190	1363.288720	273.613956	-539.750279	1464.601244	95.865752	-552.003341	1300.962283	-20.895956	-528.378938	1260.799941	-6.663839	-560.520819	1240.662195	-53.886894	-594.877784	1166.125002	-78.869154	-656.059577	1147.536214	4.673577	-417.389538	1077.352770	95.400351	-442.835767	1136.130327	130.543348	-364.854721	1148.447049	162.617580	-623.362601	1433.476640	435.995728	-737.918722	1325.067067	538.130433	-722.013402	1281.135681	548.779138	-778.728204	1277.369361	569.728819	-824.433701	1185.217138	601.977405	-857.581968	1173.586179	525.345787	-601.319120	1045.015897	528.589929	-630.247256	989.759465	571.074450	-525.392986	1003.394300	535.906079	-591.011144	953.466595	115.118869	-610.367565	973.921078	359.521654	-769.987596	1058.947442	228.001280	-771.851961	1025.457404	201.220643	-779.298557	1028.863796	258.064291	-769.727551	688.645219	45.519407	-763.962575	605.143197	46.157622	-720.455289	588.999363	54.504904	-807.209877	563.355453	61.165915	-854.012494	494.370889	72.523169	-856.882404	485.412484	194.668416	-990.671398	389.862565	90.504892	-1045.319214	440.611824	42.169163	-1040.015119	404.003077	62.403307	-1120.824265	383.615286	88.245676	-1246.577542	416.462822	64.845891	-1242.810229	397.293769	149.157573	-1298.101401	483.147183	116.316031	-1301.646195	271.675945	135.182118	-1329.970771	306.283181	38.864026	-1299.185898	269.625337	86.088364	-579.665978	805.680590	431.750346	-524.417218	776.198759	416.514617	-503.387803	790.030071	393.904482	-510.264428	691.840914	421.877346	-468.090288	501.358008	372.747733	-453.381582	513.481903	250.087723	-370.826453	310.202024	323.817320	-424.147267	215.401372	349.011718	-379.225400	224.973380	337.612623	-357.511750	183.994825	304.835952	-385.617156	97.546221	317.648582	-378.296727	127.263213	240.497089	-451.090022	45.662311	254.749631	-234.622230	102.230947	262.711697	-241.747432	91.313626	302.891964	-274.830217	43.452356	345.566494	
336	1.675000	-324.054423	1525.206073	262.077838	-451.358138	1582.255411	231.659748	-480.378237	1578.363244	356.194494	-614.818640	1470.879933	254.561867	-716.141853	1153.795925	215.547502	-489.977361	1360.193047	273.747749	-517.848496	1461.934450	96.163520	-532.147904	1297.847243	-21.212003	-509.194981	1257.411527	-6.485508	-541.699835	1237.283810	-53.527648	-576.676254	1163.417376	-78.423112	-637.127509	1145.334923	5.228559	-399.137063	1065.787746	91.363724	-422.354915	1124.345484	128.262618	-344.022574	1133.231501	160.524008	-599.346405	1429.210893	437.542153	-712.190383	1316.688989	539.678100	-694.985665	1273.044147	549.689298	-751.486222	1267.282825	570.519710	-794.980663	1174.711348	602.670592	-828.310701	1162.863850	525.990533	-570.596536	1037.800127	526.523285	-598.359649	982.347815	569.479334	-494.057974	997.868344	534.266281	-566.436106	951.875597	115.505168	-586.151954	970.365871	360.460735	-746.106348	1055.196151	229.701653	-747.967609	1021.734092	202.928212	-755.404262	1025.182500	259.785951	-742.791940	685.756688	43.916087	-735.174977	602.494627	42.896447	-691.262692	586.734214	50.179222	-777.029818	559.428015	58.347131	-821.925521	490.780394	69.390605	-822.083033	477.653200	191.085042	-959.158197	389.242394	87.129651	-1014.094751	443.406801	42.644920	-1008.856411	405.560881	60.931858	-1089.372501	385.640816	88.197323	-1214.327913	421.720806	68.587244	-1209.437072	400.576064	152.501555	-1264.393193	487.962315	122.526380	-1269.925497	275.937211	136.230420	-1299.010807	313.332382	41.128697	-1268.055584	275.124358	87.082997	-556.805537	801.422121	432.797578	-501.612704	771.375746	418.640604	-479.751260	785.281567	396.737389	-488.731798	686.766505	422.590280	-447.891131	495.729501	372.596577	-432.809889	508.913002	250.359511	-354.118590	303.814338	321.531637	-409.645167	210.047799	346.427533	-364.705510	218.794229	334.836640	-344.528307	177.581211	301.482624	-375.388657	93.798562	314.442541	-367.409488	121.262681	236.677309	-444.345319	45.788465	252.684792	-225.314562	91.491759	259.587188	-232.536220	82.036538	299.966498	-268.036287	37.878618	344.219710	
